<?xml version="1.0" encoding="utf-8"?>
<!-- Generator: Adobe Illustrator 25.1.0, SVG Export Plug-In . SVG Version: 6.00 Build 0)  -->
<svg version="1.1" id="Laag_1" xmlns="http://www.w3.org/2000/svg" xmlns:xlink="http://www.w3.org/1999/xlink" x="0px" y="0px"
	 viewBox="0 0 1051.5 631.2" style="enable-background:new 0 0 1051.5 631.2;" xml:space="preserve">
<style type="text/css">
	.st0{fill:#C6934B;}
</style>
<g>
	<path class="st0" d="M87.9,278.4c1.6,0,3.3,0,4.9,0c-1.5,0-2.9,0-4.4,0C88.2,278.4,88,278.4,87.9,278.4z"/>
	<path class="st0" d="M86.2,207.1L86.2,207.1c1.1,0,2.2,0,3.4,0c-0.3,0-0.5,0-0.8,0C88,207.1,87.1,207.1,86.2,207.1z"/>
	<path class="st0" d="M86.2,278.4L86.2,278.4c0.6,0,1.1,0,1.7,0c-0.2,0-0.4,0-0.6,0C87,278.4,86.6,278.4,86.2,278.4z"/>
	<path class="st0" d="M89.6,207.1c2.2,0,4.4,0,6.6,0.1c-2,0-4-0.1-6-0.1C90,207.1,89.8,207.1,89.6,207.1z"/>
	<g>
		<path class="st0" d="M132.2,135.9h-7.5c382.9,5,687.1,83.6,687.1,179.9c0,38.4-48.6,74-131.3,103.3c38.8-17.2,60.5-36.4,60.5-56.6
			c0-73.2-282.1-154.2-644.9-155.3c294.2,1.1,531.7,82.1,531.7,155.3c0,33-48.4,63.2-128.5,86.5c45.2-15.1,71-32.9,71-52
			c0-54.2-208.9-117.7-477.7-118.6c217.9,0.8,393.9,64.4,393.9,118.6c0,25.9-40.3,49.5-106.2,67.2c39.4-11.8,62.2-26.1,62.2-41.5
			c0-40.2-154.8-72.8-353.8-73.2c161.4,0.4,291.8,33,291.8,73.2c0,39.2-123.9,71.1-279.7,73.1c-2.7,0-5.5,0-8.2,0l-1.4,0
			c491-0.8,873.1-81.1,873.1-180.1C964.5,219.5,603.4,140.9,132.2,135.9z"/>
	</g>
</g>
</svg>
